<svg width="100" height="100" viewBox="0 0 100 100" fill="none" xmlns="http://www.w3.org/2000/svg">
<g opacity="0.2">
<path d="M54.6875 71.875V37.5C54.6931 32.5289 56.6704 27.763 60.1855 24.248C63.7005 20.7329 68.4664 18.7556 73.4375 18.75C74.2663 18.75 75.0612 19.0792 75.6472 19.6653C76.2333 20.2513 76.5625 21.0462 76.5625 21.875C76.5625 22.7038 76.2333 23.4987 75.6472 24.0847C75.0612 24.6708 74.2663 25 73.4375 25C70.1234 25.0037 66.9462 26.3219 64.6028 28.6653C62.2594 31.0087 60.9412 34.1859 60.9375 37.5V40.625H84.375C86.032 40.6269 87.6206 41.286 88.7923 42.4577C89.964 43.6294 90.6231 45.218 90.625 46.875V71.875C90.6231 73.532 89.964 75.1206 88.7923 76.2923C87.6206 77.464 86.032 78.1231 84.375 78.125H60.9375C59.2805 78.1231 57.6919 77.464 56.5202 76.2923C55.3485 75.1206 54.6894 73.532 54.6875 71.875ZM15.625 78.125H39.0625C40.7195 78.1231 42.3081 77.464 43.4798 76.2923C44.6515 75.1206 45.3106 73.532 45.3125 71.875V46.875C45.3106 45.218 44.6515 43.6294 43.4798 42.4577C42.3081 41.286 40.7195 40.6269 39.0625 40.625H15.625V37.5C15.6287 34.1859 16.9469 31.0087 19.2903 28.6653C21.6337 26.3219 24.8109 25.0037 28.125 25C28.9538 25 29.7487 24.6708 30.3347 24.0847C30.9208 23.4987 31.25 22.7038 31.25 21.875C31.25 21.0462 30.9208 20.2513 30.3347 19.6653C29.7487 19.0792 28.9538 18.75 28.125 18.75C23.1539 18.7556 18.388 20.7329 14.873 24.248C11.3579 27.763 9.38062 32.5289 9.375 37.5V71.875C9.37689 73.532 10.036 75.1206 11.2077 76.2923C12.3794 77.464 13.968 78.1231 15.625 78.125Z" fill="#3F53D8"/>
</g>
</svg>
