<svg width="18" height="18" viewBox="0 0 18 18" fill="none" xmlns="http://www.w3.org/2000/svg">
<path d="M5.94718 8.72689C6.66032 10.1848 7.84213 11.3613 9.3033 12.0678C9.4102 12.1184 9.5285 12.1404 9.6465 12.1314C9.7644 12.1225 9.878 12.083 9.9761 12.0169L12.1276 10.5822C12.2228 10.5187 12.3322 10.48 12.4461 10.4696C12.56 10.4591 12.6747 10.4772 12.7798 10.5223L16.8049 12.2473C16.9416 12.3054 17.0558 12.4063 17.1302 12.5349C17.2045 12.6635 17.2351 12.8128 17.2173 12.9603C17.09 13.9558 16.6043 14.8708 15.851 15.534C15.0978 16.1971 14.1286 16.563 13.125 16.5631C10.0253 16.5631 7.05252 15.3317 4.86069 13.1399C2.66886 10.948 1.4375 7.97526 1.4375 4.87554C1.43755 3.87194 1.80342 2.90277 2.46659 2.1495C3.12975 1.39623 4.04475 0.910506 5.04026 0.783286C5.18774 0.765436 5.33703 0.795996 5.46562 0.870376C5.59422 0.944746 5.69517 1.0589 5.75325 1.19563L7.47978 5.2242C7.52444 5.3284 7.54264 5.44203 7.53275 5.55497C7.52287 5.6679 7.4852 5.77664 7.42312 5.8715L5.99343 8.05599C5.92836 8.15429 5.88989 8.26779 5.88179 8.38529C5.87368 8.50289 5.89621 8.62059 5.94718 8.72689Z" stroke="#080829" stroke-width="1.2" stroke-linecap="round" stroke-linejoin="round"/>
</svg>
