<svg width="58" height="58" viewBox="0 0 58 58" fill="none" xmlns="http://www.w3.org/2000/svg">
<g clip-path="url(#clip0_1_862)">
<path d="M29 58C45.0163 58 58 45.0163 58 29C58 12.9837 45.0163 0 29 0C12.9837 0 0 12.9837 0 29C0 45.0163 12.9837 58 29 58Z" fill="url(#paint0_linear_1_862)"/>
<path d="M38.4533 27.7623L25.4061 19.7886C25.1864 19.6542 24.9348 19.5809 24.6773 19.5759C24.4196 19.5711 24.1655 19.6349 23.9408 19.7609C23.7161 19.8868 23.5291 20.0704 23.3988 20.2927C23.2686 20.515 23.2 20.7679 23.2 21.0256V36.9741C23.2002 37.2316 23.269 37.4844 23.3992 37.7065C23.5294 37.9287 23.7165 38.1122 23.9411 38.2381C24.1658 38.3641 24.4198 38.4279 24.6774 38.4231C24.9348 38.4184 25.1863 38.3451 25.4061 38.211L38.4533 30.2374C38.6653 30.1078 38.8404 29.9259 38.9619 29.7092C39.0834 29.4925 39.1472 29.2482 39.1472 28.9998C39.1472 28.7513 39.0834 28.5071 38.9619 28.2903C38.8404 28.0737 38.6653 27.8918 38.4533 27.7623Z" fill="white"/>
</g>
<defs>
<linearGradient id="paint0_linear_1_862" x1="0" y1="0" x2="58" y2="69.9625" gradientUnits="userSpaceOnUse">
<stop stop-color="#3F53D8"/>
<stop offset="1" stop-color="#8090FE"/>
</linearGradient>
<clipPath id="clip0_1_862">
<rect width="58" height="58" fill="white"/>
</clipPath>
</defs>
</svg>
