<svg width="746" height="27" viewBox="0 0 746 27" fill="none" xmlns="http://www.w3.org/2000/svg">
<g clip-path="url(#clip0_1_826)">
<path d="M25.9757 10.8006C25.8595 10.4231 25.6359 10.0906 25.3342 9.84648C25.0325 9.60238 24.6667 9.458 24.2845 9.43218L17.3718 8.93185L14.8076 2.25364C14.6688 1.88443 14.4254 1.5672 14.1093 1.3435C13.7932 1.1198 13.4192 1.00007 13.0363 1H13.0344C12.652 1.00071 12.2787 1.12074 11.9633 1.3444C11.6479 1.56807 11.4052 1.88496 11.2667 2.25364L8.66426 8.97041L1.78985 9.43218C1.40762 9.458 1.04177 9.60238 0.740062 9.84648C0.438353 10.0906 0.214786 10.4231 0.0985288 10.8006C-0.0241138 11.1834 -0.0324569 11.5956 0.0745864 11.9834C0.18163 12.3712 0.399099 12.7167 0.698676 12.9749L5.98724 17.5982L4.41412 23.998C4.3057 24.4291 4.32564 24.884 4.47133 25.3032C4.61703 25.7224 4.8817 26.0863 5.23069 26.3473C5.56763 26.6009 5.97056 26.7436 6.38704 26.757C6.80352 26.7705 7.21426 26.6539 7.5658 26.4226L13.0217 22.8479C13.0289 22.8422 13.0363 22.8385 13.0526 22.8479L18.9231 26.6943C19.2418 26.9049 19.6145 27.0112 19.9926 26.9991C20.3706 26.987 20.7363 26.8572 21.0418 26.6266C21.3581 26.3902 21.5979 26.0606 21.73 25.6808C21.862 25.3011 21.8801 24.889 21.782 24.4984L20.1107 17.507L25.3756 12.9749C25.6752 12.7167 25.8926 12.3712 25.9997 11.9834C26.1068 11.5956 26.0984 11.1834 25.9757 10.8006Z" fill="#3F53D8"/>
</g>
<g clip-path="url(#clip1_1_826)">
<path d="M68.9757 10.8006C68.8595 10.4231 68.6359 10.0906 68.3342 9.84648C68.0325 9.60238 67.6667 9.458 67.2845 9.43218L60.3718 8.93185L57.8076 2.25364C57.6688 1.88443 57.4254 1.5672 57.1093 1.3435C56.7932 1.1198 56.4192 1.00007 56.0363 1H56.0344C55.652 1.00071 55.2787 1.12074 54.9633 1.3444C54.6479 1.56807 54.4052 1.88496 54.2667 2.25364L51.6643 8.97041L44.7898 9.43218C44.4076 9.458 44.0418 9.60238 43.7401 9.84648C43.4384 10.0906 43.2148 10.4231 43.0985 10.8006C42.9759 11.1834 42.9675 11.5956 43.0746 11.9834C43.1816 12.3712 43.3991 12.7167 43.6987 12.9749L48.9872 17.5982L47.4141 23.998C47.3057 24.4291 47.3256 24.884 47.4713 25.3032C47.617 25.7224 47.8817 26.0863 48.2307 26.3473C48.5676 26.6009 48.9706 26.7436 49.387 26.757C49.8035 26.7705 50.2143 26.6539 50.5658 26.4226L56.0217 22.8479C56.0289 22.8422 56.0363 22.8385 56.0526 22.8479L61.9231 26.6943C62.2418 26.9049 62.6145 27.0112 62.9926 26.9991C63.3706 26.987 63.7363 26.8572 64.0418 26.6266C64.3581 26.3902 64.5979 26.0606 64.73 25.6808C64.862 25.3011 64.8801 24.889 64.782 24.4984L63.1107 17.507L68.3756 12.9749C68.6752 12.7167 68.8926 12.3712 68.9997 11.9834C69.1068 11.5956 69.0984 11.1834 68.9757 10.8006Z" fill="#3F53D8"/>
</g>
<g clip-path="url(#clip2_1_826)">
<path d="M111.976 10.8006C111.86 10.4231 111.636 10.0906 111.334 9.84648C111.032 9.60238 110.667 9.458 110.284 9.43218L103.372 8.93185L100.808 2.25364C100.669 1.88443 100.425 1.5672 100.109 1.3435C99.7932 1.1198 99.4192 1.00007 99.0363 1H99.0344C98.652 1.00071 98.2787 1.12074 97.9633 1.3444C97.6479 1.56807 97.4052 1.88496 97.2667 2.25364L94.6643 8.97041L87.7898 9.43218C87.4076 9.458 87.0418 9.60238 86.7401 9.84648C86.4384 10.0906 86.2148 10.4231 86.0985 10.8006C85.9759 11.1834 85.9675 11.5956 86.0746 11.9834C86.1816 12.3712 86.3991 12.7167 86.6987 12.9749L91.9872 17.5982L90.4141 23.998C90.3057 24.4291 90.3256 24.884 90.4713 25.3032C90.617 25.7224 90.8817 26.0863 91.2307 26.3473C91.5676 26.6009 91.9706 26.7436 92.387 26.757C92.8035 26.7705 93.2143 26.6539 93.5658 26.4226L99.0217 22.8479C99.0289 22.8422 99.0363 22.8385 99.0526 22.8479L104.923 26.6943C105.242 26.9049 105.615 27.0112 105.993 26.9991C106.371 26.987 106.736 26.8572 107.042 26.6266C107.358 26.3902 107.598 26.0606 107.73 25.6808C107.862 25.3011 107.88 24.889 107.782 24.4984L106.111 17.507L111.376 12.9749C111.675 12.7167 111.893 12.3712 112 11.9834C112.107 11.5956 112.098 11.1834 111.976 10.8006Z" fill="#3F53D8"/>
</g>
<g clip-path="url(#clip3_1_826)">
<path d="M154.976 10.8006C154.86 10.4231 154.636 10.0906 154.334 9.84648C154.032 9.60238 153.667 9.458 153.284 9.43218L146.372 8.93185L143.808 2.25364C143.669 1.88443 143.425 1.5672 143.109 1.3435C142.793 1.1198 142.419 1.00007 142.036 1H142.034C141.652 1.00071 141.279 1.12074 140.963 1.3444C140.648 1.56807 140.405 1.88496 140.267 2.25364L137.664 8.97041L130.79 9.43218C130.408 9.458 130.042 9.60238 129.74 9.84648C129.438 10.0906 129.215 10.4231 129.099 10.8006C128.976 11.1834 128.968 11.5956 129.075 11.9834C129.182 12.3712 129.399 12.7167 129.699 12.9749L134.987 17.5982L133.414 23.998C133.306 24.4291 133.326 24.884 133.471 25.3032C133.617 25.7224 133.882 26.0863 134.231 26.3473C134.568 26.6009 134.971 26.7436 135.387 26.757C135.804 26.7705 136.214 26.6539 136.566 26.4226L142.022 22.8479C142.029 22.8422 142.036 22.8385 142.053 22.8479L147.923 26.6943C148.242 26.9049 148.615 27.0112 148.993 26.9991C149.371 26.987 149.736 26.8572 150.042 26.6266C150.358 26.3902 150.598 26.0606 150.73 25.6808C150.862 25.3011 150.88 24.889 150.782 24.4984L149.111 17.507L154.376 12.9749C154.675 12.7167 154.893 12.3712 155 11.9834C155.107 11.5956 155.098 11.1834 154.976 10.8006Z" fill="#3F53D8"/>
</g>
<g clip-path="url(#clip4_1_826)">
<path opacity="0.2" d="M198.13 10.8006C198.014 10.4231 197.79 10.0906 197.489 9.84648C197.187 9.60238 196.821 9.458 196.439 9.43218L189.526 8.93185L186.962 2.25364C186.823 1.88443 186.58 1.5672 186.264 1.3435C185.948 1.1198 185.574 1.00007 185.191 1H185.189C184.806 1.00071 184.433 1.12074 184.118 1.3444C183.802 1.56807 183.56 1.88496 183.421 2.25364L180.819 8.97041L173.944 9.43218C173.562 9.458 173.196 9.60238 172.894 9.84648C172.593 10.0906 172.369 10.4231 172.253 10.8006C172.13 11.1834 172.122 11.5956 172.229 11.9834C172.336 12.3712 172.554 12.7167 172.853 12.9749L178.142 17.5982L176.569 23.998C176.46 24.4291 176.48 24.884 176.626 25.3032C176.771 25.7224 177.036 26.0863 177.385 26.3473C177.722 26.6009 178.125 26.7436 178.541 26.757C178.958 26.7705 179.369 26.6539 179.72 26.4226L185.176 22.8479C185.183 22.8422 185.191 22.8385 185.207 22.8479L191.078 26.6943C191.396 26.9049 191.769 27.0112 192.147 26.9991C192.525 26.987 192.891 26.8572 193.196 26.6266C193.512 26.3902 193.752 26.0606 193.884 25.6808C194.016 25.3011 194.035 24.889 193.936 24.4984L192.265 17.507L197.53 12.9749C197.83 12.7167 198.047 12.3712 198.154 11.9834C198.261 11.5956 198.253 11.1834 198.13 10.8006Z" fill="#3F53D8"/>
</g>
<defs>
<clipPath id="clip0_1_826">
<rect width="27" height="26" fill="white" transform="translate(0 1)"/>
</clipPath>
<clipPath id="clip1_1_826">
<rect width="27" height="26" fill="white" transform="translate(43 1)"/>
</clipPath>
<clipPath id="clip2_1_826">
<rect width="27" height="26" fill="white" transform="translate(86 1)"/>
</clipPath>
<clipPath id="clip3_1_826">
<rect width="27" height="26" fill="white" transform="translate(129 1)"/>
</clipPath>
<clipPath id="clip4_1_826">
<rect width="27" height="26" fill="white" transform="translate(172 1)"/>
</clipPath>
</defs>
</svg>
