<svg width="20" height="18" viewBox="0 0 20 18" fill="none" xmlns="http://www.w3.org/2000/svg">
<path d="M19.2597 2.79875C18.5513 3.125 17.7966 3.34125 17.0097 3.44625C17.8192 2.93875 18.437 2.14125 18.7275 1.18C17.9727 1.6525 17.1394 1.98625 16.2513 2.1725C15.5346 1.37125 14.5132 0.875 13.3989 0.875C11.237 0.875 9.49656 2.7175 9.49656 4.97625C9.49656 5.30125 9.52275 5.61375 9.58703 5.91125C6.34061 5.745 3.46799 4.11125 1.53823 1.6225C1.20133 2.23625 1.00371 2.93875 1.00371 3.695C1.00371 5.115 1.70014 6.37375 2.73823 7.1025C2.11085 7.09 1.49537 6.89875 0.973945 6.5975C0.973945 6.61 0.973945 6.62625 0.973945 6.6425C0.973945 8.635 2.32752 10.29 4.10252 10.6712C3.78466 10.7625 3.43823 10.8062 3.07871 10.8062C2.82871 10.8062 2.57633 10.7913 2.33942 10.7362C2.84537 12.36 4.28109 13.5538 5.98823 13.5925C4.65966 14.6838 2.97275 15.3412 1.14656 15.3412C0.826322 15.3412 0.519179 15.3263 0.212036 15.285C1.9418 16.4563 3.9918 17.125 6.20252 17.125C13.3883 17.125 17.3168 10.875 17.3168 5.4575C17.3168 5.27625 17.3108 5.10125 17.3026 4.9275C18.0775 4.35 18.7287 3.62875 19.2597 2.79875Z" fill="#080829"/>
</svg>
